:SAMPLES-PER-SECOND 30
:FRAME-RANGE 1-3535
:FULLY-SPECIFIED
:DEGREES
884
root  -2.37677 37.9451 58.5532 -173.273 -51.0228 179.55
RightUpLeg  9.41367 -25.1732 -22.4531
RightLeg  11.5296 -20.9174 -0.895516
RightFoot  -3.35967 -2.2038 30.5567
RightToes  1.22775e-009 1.2921e-014 -6.02303e-014
Spine  7.65684 -0.257643 -0.952407
Spine1  -3.43028 -0.00956252 -2.43411
HEad  4.2572 2.62575 -7.42354
LeftShoulder1  -0.0170243 3.56606 -20.8742
LeftArm  6.37254 17.1451 2.87655
LeftForeArm  -9.9669 -24.6377 -5.76477
LeftHand  0.309109 -1.32316 -5.24406
RightShoulder  -1.72668 -7.14005 40.5997
RightArm  67.544 -23.6782 14.8477
RightForeArm  -19.2196 20.9198 8.06239
RightHand  0.193824 4.26754 2.04907
LeftUpLeg  -20.5384 38.9427 7.15281
LeftLeg  26.3229 3.70696 2.33633
LeftFoot  -8.95463 0.372902 -15.2613
LeftToes  2.52163e-011 5.65494e-011 -1.09494e-012
885
root  -3.31031 37.6227 59.4015 -167.091 -57.4343 173.615
RightUpLeg  9.21944 -29.6398 -27.8695
RightLeg  16.5133 -14.9872 -4.83064
RightFoot  -1.70474 -3.27619 37.4176
RightToes  1.22775e-009 1.2921e-014 -6.02303e-014
Spine  7.49621 -0.504048 -4.78157
Spine1  -3.34062 -0.743564 -1.64098
HEad  3.70699 -2.11322 -6.99339
LeftShoulder1  0.0386408 3.36788 -22.0244
LeftArm  3.60964 14.6822 2.0155
LeftForeArm  -7.64173 -26.3558 -6.04876
LeftHand  0.325941 -1.82535 -5.10182
RightShoulder  -1.74639 -7.24198 39.8935
RightArm  65.6091 -22.9712 13.4866
RightForeArm  -17.4962 19.4405 9.60741
RightHand  0.209388 4.41006 2.194
LeftUpLeg  -25.6669 41.5224 -0.884618
LeftLeg  29.1691 -3.40855 -1.70676
LeftFoot  -10.5565 0.150393 -12.714
LeftToes  2.52163e-011 5.65494e-011 -1.09494e-012
886
root  -4.25285 37.538 60.3599 -161.488 -63.4452 167.361
RightUpLeg  7.00198 -18.7175 -28.9
RightLeg  25.1776 -18.2961 -9.34339
RightFoot  3.28026 -4.33379 33.0764
RightToes  1.22775e-009 1.2921e-014 -6.02303e-014
Spine  8.77932 -0.725885 -5.50555
Spine1  -2.73664 -1.03085 -2.42851
HEad  2.16436 -7.58926 -6.4123
LeftShoulder1  0.265931 2.61961 -23.7753
LeftArm  2.0443 10.6839 -0.232559
LeftForeArm  -5.68593 -26.8908 -6.07712
LeftHand  0.310987 -1.97234 -4.74992
RightShoulder  -1.51299 -6.74625 39.8032
RightArm  54.9817 -20.3217 12.6472
RightForeArm  -10.227 14.4508 13.9658
RightHand  0.248515 4.71613 2.5567
LeftUpLeg  -25.9531 36.1395 -5.13398
LeftLeg  29.8679 -4.19074 -2.2438
LeftFoot  -12.2704 -0.0173678 -11.1551
LeftToes  2.52163e-011 5.65494e-011 -1.09494e-012
887
root  -5.13027 37.5732 61.2482 -158.839 -67.7971 164.034
RightUpLeg  2.01156 -7.36137 -26.6727
RightLeg  36.6827 -14.5416 -11.5904
RightFoot  10.2923 -2.86397 15.2827
RightToes  1.22775e-009 1.2921e-014 -6.02303e-014
Spine  10.3836 -0.438435 -3.9867
Spine1  -1.86802 -0.512947 -3.6245
HEad  1.26684 -12.3232 -6.24969
LeftShoulder1  0.469255 2.03147 -25.6597
LeftArm  1.09015 6.54029 -4.13636
LeftForeArm  -3.33772 -27.1703 -6.02374
LeftHand  0.263954 -2.11492 -3.91767
RightShoulder  -0.511108 -4.56503 40.4246
RightArm  38.3919 -16.9951 10.6805
RightForeArm  -1.15237 7.30135 17.5417
RightHand  0.237722 4.02652 2.6587
LeftUpLeg  -24.5775 29.1069 -6.32127
LeftLeg  30.0385 -1.84928 -0.79433
LeftFoot  -13.1623 -0.0637829 -8.95221
LeftToes  2.52163e-011 5.65494e-011 -1.09494e-012
888
root  -5.82621 37.5776 61.8105 -156.616 -70.6431 161.432
RightUpLeg  -3.02509 -1.27276 -24.4136
RightLeg  46.1735 -4.71894 -5.55686
RightFoot  7.15009 -1.89367 11.8975
RightToes  1.22775e-009 1.2921e-014 -6.02303e-014
Spine  11.1469 0.224281 -4.45938
Spine1  -0.66409 -0.0640873 -3.85959
HEad  1.43604 -15.7101 -5.35704
LeftShoulder1  0.665816 1.49189 -26.9338
LeftArm  1.09091 3.87212 -9.32361
LeftForeArm  -2.12494 -27.483 -6.03524
LeftHand  0.22727 -2.26076 -3.27221
RightShoulder  0.862068 -1.68402 41.7445
RightArm  20.6573 -12.4534 8.40435
RightForeArm  7.22078 -0.854786 18.6261
RightHand  0.209782 3.46765 2.50176
LeftUpLeg  -23.4501 25.2796 -7.02506
LeftLeg  30.2528 -0.978718 -0.247146
LeftFoot  -14.2998 -0.123098 -8.06983
LeftToes  2.52163e-011 5.65494e-011 -1.09494e-012
889
root  -6.60206 37.7589 62.2331 -154.893 -73.0573 159.272
RightUpLeg  -7.89583 -0.0156637 -22.2658
RightLeg  54.286 -1.96852 -3.33575
RightFoot  5.51852 -2.22833 15.2117
RightToes  1.22775e-009 1.2921e-014 -6.02303e-014
Spine  11.7424 0.450022 -5.49118
Spine1  -0.0589599 -0.170185 -3.55705
HEad  2.57869 -18.0807 -3.80394
LeftShoulder1  0.834841 1.04227 -27.7867
LeftArm  2.80826 2.60818 -15.099
LeftForeArm  -1.28561 -27.5668 -6.01146
LeftHand  0.204202 -2.58519 -2.7754
RightShoulder  2.15951 0.920596 42.6935
RightArm  4.0825 -7.88435 6.5731
RightForeArm  15.1324 -6.20024 16.9705
RightHand  0.20367 3.20731 2.51481
LeftUpLeg  -21.099 24.6439 -7.28501
LeftLeg  28.8265 -2.52527 -1.13128
LeftFoot  -15.0834 -0.163215 -7.75032
LeftToes  2.52163e-011 5.65494e-011 -1.09494e-012
890
root  -7.52522 38.0908 62.6583 -153.401 -75.7553 157.787
RightUpLeg  -13.0019 -2.21004 -19.5628
RightLeg  59.827 -3.24761 -6.5046
RightFoot  4.45035 -1.99887 14.5624
RightToes  1.22775e-009 1.2921e-014 -6.02303e-014
Spine  11.924 -0.00454115 -5.88822
Spine1  -0.341354 -0.832782 -2.60805
HEad  3.90512 -19.9844 -2.51484
LeftShoulder1  0.986231 0.678933 -28.813
LeftArm  7.05077 1.6289 -20.1073
LeftForeArm  -0.399553 -27.3884 -5.92292
LeftHand  0.234357 -3.15291 -2.95734
RightShoulder  3.02206 2.69934 42.5449
RightArm  -5.90141 -4.55372 6.06903
RightForeArm  16.1493 -5.07618 15.3723
RightHand  0.180718 3.47185 2.1197
LeftUpLeg  -18.042 22.9597 -6.95486
LeftLeg  25.8187 -3.32091 -1.64136
LeftFoot  -15.2671 -0.169327 -7.59811
LeftToes  2.52163e-011 5.65494e-011 -1.09494e-012
891
root  -8.50803 38.4821 63.0818 -153.846 -78.2985 158.458
RightUpLeg  -18.1521 -5.62933 -15.912
RightLeg  61.9961 -5.05276 -10.727
RightFoot  1.54658 -1.41215 12.5507
RightToes  1.22775e-009 1.2921e-014 -6.02303e-014
Spine  11.891 -0.710445 -5.4618
Spine1  -0.946342 -1.5176 -1.59941
HEad  4.4645 -21.6888 -0.963166
LeftShoulder1  1.1694 0.256395 -29.9361
LeftArm  12.5744 0.568266 -24.5308
LeftForeArm  1.79184 -27.3472 -5.79787
LeftHand  0.241225 -3.7846 -2.79526
RightShoulder  3.26343 3.37375 41.3459
RightArm  -8.28413 -1.1257 7.82761
RightForeArm  11.1095 0.320802 14.7812
RightHand  0.22678 3.35838 2.7666
LeftUpLeg  -14.2866 15.5439 -4.84184
LeftLeg  21.7711 1.93653 -1.88307
LeftFoot  -14.8301 -0.142945 -7.59937
LeftToes  2.52163e-011 5.65494e-011 -1.09494e-012
